<svg width="1600" height="900" viewBox="0 0 1600 900" fill="none" xmlns="http://www.w3.org/2000/svg">
  <rect width="1600" height="900" fill="#06142D"/>
  <g opacity="0.25">
    <path d="M0 116H241L306 181H516L586 251H753" stroke="#1E6EA1"/>
    <path d="M1600 167H1358L1284 241H1076L1008 309H827" stroke="#1E6EA1"/>
    <path d="M0 722H258L336 644H547L636 555H764" stroke="#1E6EA1"/>
    <path d="M1600 708H1397L1327 638H1138L1048 548H874" stroke="#1E6EA1"/>
    <path d="M214 0V88L304 178V306" stroke="#1A5D86"/>
    <path d="M1392 900V759L1305 672V541" stroke="#1A5D86"/>
  </g>
  <g opacity="0.18">
    <circle cx="154" cy="116" r="5" fill="#57D8FF"/>
    <circle cx="306" cy="181" r="5" fill="#57D8FF"/>
    <circle cx="586" cy="251" r="5" fill="#57D8FF"/>
    <circle cx="1284" cy="241" r="5" fill="#9F75FF"/>
    <circle cx="1048" cy="548" r="5" fill="#9F75FF"/>
    <circle cx="336" cy="644" r="5" fill="#57D8FF"/>
  </g>
  <g filter="url(#glow)">
    <path d="M88 513C221 403 354 303 527 401C665 479 707 575 884 461C1054 351 1136 211 1513 299" stroke="#52D9FF" stroke-width="3"/>
    <path d="M88 513C254 578 398 637 588 529C810 403 979 421 1513 299" stroke="#A76BFF" stroke-width="3"/>
    <path d="M240 325C445 226 638 279 784 401C943 535 1129 601 1392 693" stroke="#55E0FF" stroke-width="3"/>
    <path d="M240 325C420 501 599 697 857 621C1046 565 1210 438 1392 693" stroke="#A76BFF" stroke-width="3"/>
    <path d="M527 401C657 344 764 338 884 461C1017 598 1167 624 1392 693" stroke="#6BEAFF" stroke-width="2"/>
    <path d="M588 529C762 684 925 762 1125 566C1274 420 1363 334 1513 299" stroke="#9F75FF" stroke-width="2"/>
  </g>
  <g filter="url(#nodeGlow)">
    <g>
      <circle cx="88" cy="513" r="28" fill="#07263D" stroke="#56E4FF" stroke-width="3"/>
      <path d="M88 484L113 499V528L88 543L63 528V499L88 484Z" stroke="#7AF0FF" stroke-width="2"/>
    </g>
    <g>
      <circle cx="240" cy="325" r="20" fill="#082B45" stroke="#56E4FF" stroke-width="3"/>
      <path d="M240 302L260 314V337L240 349L220 337V314L240 302Z" stroke="#7AF0FF" stroke-width="2"/>
    </g>
    <g>
      <circle cx="527" cy="401" r="23" fill="#241451" stroke="#A76BFF" stroke-width="3"/>
      <path d="M527 375L550 388V414L527 427L504 414V388L527 375Z" stroke="#C6A5FF" stroke-width="2"/>
    </g>
    <g>
      <circle cx="588" cy="529" r="24" fill="#241451" stroke="#A76BFF" stroke-width="3"/>
      <path d="M588 502L612 516V543L588 557L564 543V516L588 502Z" stroke="#C6A5FF" stroke-width="2"/>
    </g>
    <g>
      <circle cx="884" cy="461" r="22" fill="#111B55" stroke="#8F87FF" stroke-width="3"/>
      <path d="M884 436L906 449V474L884 487L862 474V449L884 436Z" stroke="#B9B3FF" stroke-width="2"/>
    </g>
    <g>
      <circle cx="1125" cy="566" r="28" fill="#082B45" stroke="#56E4FF" stroke-width="3"/>
      <path d="M1125 535L1152 550V582L1125 597L1098 582V550L1125 535Z" stroke="#7AF0FF" stroke-width="2"/>
    </g>
    <g>
      <circle cx="1392" cy="693" r="22" fill="#082B45" stroke="#56E4FF" stroke-width="3"/>
      <path d="M1392 668L1414 681V706L1392 719L1370 706V681L1392 668Z" stroke="#7AF0FF" stroke-width="2"/>
    </g>
    <g>
      <circle cx="1513" cy="299" r="24" fill="#241451" stroke="#A76BFF" stroke-width="3"/>
      <path d="M1513 272L1537 286V313L1513 327L1489 313V286L1513 272Z" stroke="#C6A5FF" stroke-width="2"/>
    </g>
  </g>
  <g filter="url(#dotGlow)">
    <circle cx="408" cy="340" r="6" fill="#60E7FF"/>
    <circle cx="725" cy="367" r="5" fill="#60E7FF"/>
    <circle cx="770" cy="634" r="6" fill="#60E7FF"/>
    <circle cx="986" cy="533" r="6" fill="#60E7FF"/>
    <circle cx="1228" cy="400" r="5" fill="#60E7FF"/>
    <circle cx="1328" cy="599" r="6" fill="#60E7FF"/>
    <circle cx="657" cy="229" r="5" fill="#A984FF"/>
    <circle cx="1034" cy="279" r="5" fill="#A984FF"/>
    <circle cx="1291" cy="267" r="6" fill="#A984FF"/>
  </g>
  <defs>
    <filter id="glow" x="38" y="174" width="1525" height="577" filterUnits="userSpaceOnUse" color-interpolation-filters="sRGB">
      <feGaussianBlur stdDeviation="7" result="blur"/>
      <feMerge>
        <feMergeNode in="blur"/>
        <feMergeNode in="SourceGraphic"/>
      </feMerge>
    </filter>
    <filter id="nodeGlow" x="21" y="242" width="1555" height="517" filterUnits="userSpaceOnUse" color-interpolation-filters="sRGB">
      <feGaussianBlur stdDeviation="9" result="blur"/>
      <feMerge>
        <feMergeNode in="blur"/>
        <feMergeNode in="SourceGraphic"/>
      </feMerge>
    </filter>
    <filter id="dotGlow" x="382" y="203" width="972" height="457" filterUnits="userSpaceOnUse" color-interpolation-filters="sRGB">
      <feGaussianBlur stdDeviation="5" result="blur"/>
      <feMerge>
        <feMergeNode in="blur"/>
        <feMergeNode in="SourceGraphic"/>
      </feMerge>
    </filter>
  </defs>
</svg>
